HIERARCHY
ROOT Hips
{
  OFFSET 0.000 81.429 0.000
  CHANNELS 6 Xposition Yposition Zposition Zrotation Xrotation Yrotation
  JOINT LeftUpLeg
  {
    OFFSET 6.115 1.239 2.010
    CHANNELS 6 Xposition Yposition Zposition Zrotation Xrotation Yrotation
    JOINT LeftLeg
    {
      OFFSET 0.000 -47.415 0.000
      CHANNELS 6 Xposition Yposition Zposition Zrotation Xrotation Yrotation
      JOINT LeftFoot
      {
        OFFSET 0.000 -35.254 0.000
        CHANNELS 6 Xposition Yposition Zposition Zrotation Xrotation Yrotation
        End Site
        {
          OFFSET 0.000 0.000 10.494
        }
      }
    }
  }
  JOINT RightUpLeg
  {
    OFFSET -6.115 1.239 2.010
    CHANNELS 6 Xposition Yposition Zposition Zrotation Xrotation Yrotation
    JOINT RightLeg
    {
      OFFSET 0.000 -47.415 0.000
      CHANNELS 6 Xposition Yposition Zposition Zrotation Xrotation Yrotation
      JOINT RightFoot
      {
        OFFSET 0.000 -35.254 0.000
        CHANNELS 6 Xposition Yposition Zposition Zrotation Xrotation Yrotation
        End Site
        {
          OFFSET 0.000 0.000 10.494
        }
      }
    }
  }
  JOINT Spine
  {
    OFFSET 0.000 25.036 0.000
    CHANNELS 6 Xposition Yposition Zposition Zrotation Xrotation Yrotation
    JOINT Spine1
    {
      OFFSET 0.000 25.000 0.000
      CHANNELS 6 Xposition Yposition Zposition Zrotation Xrotation Yrotation
      JOINT LeftShoulder
      {
        OFFSET 1.800 -0.600 0.200
        CHANNELS 6 Xposition Yposition Zposition Zrotation Xrotation Yrotation
        JOINT LeftArm
        {
          OFFSET 14.379 0.000 0.000
          CHANNELS 6 Xposition Yposition Zposition Zrotation Xrotation Yrotation
          JOINT LeftForeArm
          {
            OFFSET 29.029 0.000 0.000
            CHANNELS 6 Xposition Yposition Zposition Zrotation Xrotation Yrotation
            JOINT LeftHand
            {
              OFFSET 24.444 0.000 0.000
              CHANNELS 6 Xposition Yposition Zposition Zrotation Xrotation Yrotation
              JOINT LeftHandThumb1
              {
                OFFSET 4.877 -1.044 3.608
                CHANNELS 6 Xposition Yposition Zposition Zrotation Xrotation Yrotation
                JOINT LeftHandThumb2
                {
                  OFFSET 2.665 0.000 0.000
                  CHANNELS 6 Xposition Yposition Zposition Zrotation Xrotation Yrotation
                  JOINT LeftHandThumb3
                  {
                    OFFSET 2.543 -0.000 0.000
                    CHANNELS 6 Xposition Yposition Zposition Zrotation Xrotation Yrotation
                    End Site
                    {
                      OFFSET 2.667 0.000 -0.000
                    }
                  }
                }
              }
              JOINT LeftHandIndex1
              {
                OFFSET 9.232 -0.301 2.144
                CHANNELS 6 Xposition Yposition Zposition Zrotation Xrotation Yrotation
                JOINT LeftHandIndex2
                {
                  OFFSET 4.225 0.000 0.000
                  CHANNELS 6 Xposition Yposition Zposition Zrotation Xrotation Yrotation
                  JOINT LeftHandIndex3
                  {
                    OFFSET 2.654 0.000 0.000
                    CHANNELS 6 Xposition Yposition Zposition Zrotation Xrotation Yrotation
                    End Site
                    {
                      OFFSET 1.958 -0.000 0.000
                    }
                  }
                }
              }
              JOINT LeftHandMiddle1
              {
                OFFSET 8.920 -0.000 0.000
                CHANNELS 6 Xposition Yposition Zposition Zrotation Xrotation Yrotation
                JOINT LeftHandMiddle2
                {
                  OFFSET 4.863 -0.000 0.000
                  CHANNELS 6 Xposition Yposition Zposition Zrotation Xrotation Yrotation
                  JOINT LeftHandMiddle3
                  {
                    OFFSET 2.765 0.000 -0.000
                    CHANNELS 6 Xposition Yposition Zposition Zrotation Xrotation Yrotation
                    End Site
                    {
                      OFFSET 2.006 0.000 0.000
                    }
                  }
                }
              }
              JOINT LeftHandRing1
              {
                OFFSET 8.689 -0.126 -2.087
                CHANNELS 6 Xposition Yposition Zposition Zrotation Xrotation Yrotation
                JOINT LeftHandRing2
                {
                  OFFSET 4.538 -0.000 -0.000
                  CHANNELS 6 Xposition Yposition Zposition Zrotation Xrotation Yrotation
                  JOINT LeftHandRing3
                  {
                    OFFSET 2.305 0.000 0.000
                    CHANNELS 6 Xposition Yposition Zposition Zrotation Xrotation Yrotation
                    End Site
                    {
                      OFFSET 1.923 -0.000 -0.000
                    }
                  }
                }
              }
              JOINT LeftHandPinky1
              {
                OFFSET 8.391 -0.817 -3.758
                CHANNELS 6 Xposition Yposition Zposition Zrotation Xrotation Yrotation
                JOINT LeftHandPinky2
                {
                  OFFSET 3.044 0.000 -0.000
                  CHANNELS 6 Xposition Yposition Zposition Zrotation Xrotation Yrotation
                  JOINT LeftHandPinky3
                  {
                    OFFSET 1.975 0.000 0.000
                    CHANNELS 6 Xposition Yposition Zposition Zrotation Xrotation Yrotation
                    End Site
                    {
                      OFFSET 1.667 0.000 0.000
                    }
                  }
                }
              }
            }
          }
        }
      }
      JOINT RightShoulder
      {
        OFFSET -1.800 -0.600 0.200
        CHANNELS 6 Xposition Yposition Zposition Zrotation Xrotation Yrotation
        JOINT RightArm
        {
          OFFSET -14.379 0.000 0.000
          CHANNELS 6 Xposition Yposition Zposition Zrotation Xrotation Yrotation
          JOINT RightForeArm
          {
            OFFSET -29.029 0.000 0.000
            CHANNELS 6 Xposition Yposition Zposition Zrotation Xrotation Yrotation
            JOINT RightHand
            {
              OFFSET -24.444 0.000 0.000
              CHANNELS 6 Xposition Yposition Zposition Zrotation Xrotation Yrotation
              JOINT RightHandThumb1
              {
                OFFSET -4.877 -1.044 3.608
                CHANNELS 6 Xposition Yposition Zposition Zrotation Xrotation Yrotation
                JOINT RightHandThumb2
                {
                  OFFSET -2.665 -0.000 0.000
                  CHANNELS 6 Xposition Yposition Zposition Zrotation Xrotation Yrotation
                  JOINT RightHandThumb3
                  {
                    OFFSET -2.543 -0.000 0.000
                    CHANNELS 6 Xposition Yposition Zposition Zrotation Xrotation Yrotation
                    End Site
                    {
                      OFFSET -2.667 0.000 -0.000
                    }
                  }
                }
              }
              JOINT RightHandIndex1
              {
                OFFSET -9.232 -0.301 2.144
                CHANNELS 6 Xposition Yposition Zposition Zrotation Xrotation Yrotation
                JOINT RightHandIndex2
                {
                  OFFSET -4.225 -0.000 -0.000
                  CHANNELS 6 Xposition Yposition Zposition Zrotation Xrotation Yrotation
                  JOINT RightHandIndex3
                  {
                    OFFSET -2.654 0.000 0.000
                    CHANNELS 6 Xposition Yposition Zposition Zrotation Xrotation Yrotation
                    End Site
                    {
                      OFFSET -1.958 -0.000 -0.000
                    }
                  }
                }
              }
              JOINT RightHandMiddle1
              {
                OFFSET -8.920 -0.000 -0.000
                CHANNELS 6 Xposition Yposition Zposition Zrotation Xrotation Yrotation
                JOINT RightHandMiddle2
                {
                  OFFSET -4.863 -0.000 0.000
                  CHANNELS 6 Xposition Yposition Zposition Zrotation Xrotation Yrotation
                  JOINT RightHandMiddle3
                  {
                    OFFSET -2.765 -0.000 0.000
                    CHANNELS 6 Xposition Yposition Zposition Zrotation Xrotation Yrotation
                    End Site
                    {
                      OFFSET -2.006 0.000 -0.000
                    }
                  }
                }
              }
              JOINT RightHandRing1
              {
                OFFSET -8.689 -0.126 -2.087
                CHANNELS 6 Xposition Yposition Zposition Zrotation Xrotation Yrotation
                JOINT RightHandRing2
                {
                  OFFSET -4.538 -0.000 0.000
                  CHANNELS 6 Xposition Yposition Zposition Zrotation Xrotation Yrotation
                  JOINT RightHandRing3
                  {
                    OFFSET -2.305 0.000 -0.000
                    CHANNELS 6 Xposition Yposition Zposition Zrotation Xrotation Yrotation
                    End Site
                    {
                      OFFSET -1.923 0.000 -0.000
                    }
                  }
                }
              }
              JOINT RightHandPinky1
              {
                OFFSET -8.391 -0.817 -3.758
                CHANNELS 6 Xposition Yposition Zposition Zrotation Xrotation Yrotation
                JOINT RightHandPinky2
                {
                  OFFSET -3.044 -0.000 0.000
                  CHANNELS 6 Xposition Yposition Zposition Zrotation Xrotation Yrotation
                  JOINT RightHandPinky3
                  {
                    OFFSET -1.975 -0.000 -0.000
                    CHANNELS 6 Xposition Yposition Zposition Zrotation Xrotation Yrotation
                    End Site
                    {
                      OFFSET -1.667 -0.000 -0.000
                    }
                  }
                }
              }
            }
          }
        }
      }
      JOINT Neck
      {
        OFFSET 0.000 0.800 0.000
        CHANNELS 6 Xposition Yposition Zposition Zrotation Xrotation Yrotation
        JOINT Head
        {
          OFFSET 0.000 6.924 0.000
          CHANNELS 6 Xposition Yposition Zposition Zrotation Xrotation Yrotation
          End Site
          {
            OFFSET 0.000 13.245 0.000
          }
        }
      }
    }
  }
}
MOTION
Frames:	4
Frame Time:	0.033333
5.29051 81.01350 -209.60522 -2.62534 3.82357 -51.18139 8.01725 1.50045 2.18353 20.28730 6.50697 -10.43913 -0.01369 -39.95162 0.00497 -3.49288 -3.42590 12.37736 0.00439 -34.40448 -0.00307 -5.00718 31.39232 9.51066 -2.92258 -0.12695 2.17942 -0.48734 0.41424 -25.53531 -0.00897 -40.96869 -0.00585 4.29779 6.49175 -10.95243 0.00084 -31.32108 -0.00498 8.99300 43.98235 -12.77897 0.02620 32.00458 0.01342 -1.34101 0.95574 -6.60793 -0.01030 23.43809 0.00147 -1.66679 1.06316 -6.58323 1.64064 -0.33629 -0.18220 -12.13079 -1.38702 6.35636 14.97985 0.00690 -0.01309 -55.28372 6.13924 -15.74491 27.34346 -0.00688 0.03199 -20.49823 8.45795 -6.51088 23.11266 -0.00684 -0.11172 -22.06712 29.01836 15.81645 4.87701 -1.04399 3.60799 -38.84870 -18.17666 4.02960 2.66501 0.00000 0.00000 -0.00000 0.00000 5.00000 2.54299 -0.00001 0.00000 0.00001 0.00000 60.00001 9.23201 -0.30100 2.14400 2.00000 0.00000 -0.00000 4.22500 0.00000 0.00000 2.00000 0.00000 -0.00000 2.65401 0.00000 0.00000 2.00000 0.00000 -0.00000 8.92001 -0.00001 0.00001 -80.00000 0.00000 0.00001 4.86299 -0.00001 0.00000 -90.00000 -0.00000 0.00000 2.76499 0.00000 -0.00001 -69.99999 -0.00000 0.00000 8.68901 -0.12600 -2.08700 -80.00000 0.00000 0.00001 4.53800 -0.00001 -0.00001 -90.00000 -0.00000 0.00000 2.30500 0.00000 0.00000 -69.99999 -0.00000 0.00000 8.39101 -0.81700 -3.75800 2.00000 0.00000 -0.00000 3.04400 0.00000 -0.00001 2.00000 0.00000 -0.00000 1.97500 0.00001 0.00000 2.00000 0.00000 -0.00000 -1.64415 -0.77468 -0.18575 24.68030 -2.68274 -5.79121 -16.55748 -0.00634 -0.00026 67.91264 6.60470 13.25851 -27.00080 0.01615 -0.00328 7.16996 0.03674 -4.29630 -28.60297 -0.04756 -0.06574 -12.31324 -18.49904 32.97227 -4.87700 -1.04399 3.60799 37.43813 21.26626 8.20657 -2.66500 -0.00002 0.00001 0.00000 0.00000 -5.00000 -2.54302 -0.00002 0.00001 0.00000 0.00000 -60.00001 -9.23200 -0.30103 2.14400 80.00000 -0.00000 0.00001 -4.22499 -0.00000 -0.00000 90.00000 -0.00000 0.00001 -2.65400 0.00000 0.00000 69.99999 0.00000 0.00000 -8.92000 -0.00002 -0.00000 80.00000 -0.00000 0.00001 -4.86305 -0.00001 0.00000 90.00000 -0.00000 0.00001 -2.76501 -0.00002 0.00000 69.99999 0.00000 0.00000 -8.68900 -0.12603 -2.08700 80.00000 -0.00000 0.00001 -4.53799 -0.00000 0.00000 90.00000 -0.00000 0.00001 -2.30501 0.00000 -0.00000 69.99999 0.00000 0.00000 -8.39100 -0.81701 -3.75800 80.00000 -0.00000 0.00001 -3.04403 -0.00001 0.00001 90.00000 -0.00000 0.00001 -1.97499 -0.00005 -0.00000 69.99999 0.00000 0.00000 0.00770 0.77062 -0.00004 0.00001 0.00420 -0.00003 0.00047 6.89542 -0.00934 22.89816 20.36628 21.38471 
5.48203 81.09690 -209.78461 -2.39809 3.93129 -51.35190 8.00369 1.50045 2.17235 20.36115 6.11565 -9.89290 -0.01369 -40.01273 0.00497 -3.79687 -3.34692 12.26427 0.00439 -34.33513 -0.00307 -4.93578 31.79726 9.27102 -2.89432 -0.10735 2.15732 -0.13970 0.14295 -25.01015 -0.00897 -41.14377 0.00923 3.74283 5.76213 -11.38499 0.00084 -31.25727 -0.00498 8.84356 43.66084 -12.65754 0.02152 31.95867 0.01342 -1.39327 0.93078 -6.44833 -0.01030 23.41835 0.00147 -1.70065 1.02921 -6.43035 1.64064 -0.33629 -0.18220 -11.92984 -1.36360 6.35054 14.99500 0.00690 -0.01309 -54.85249 6.36836 -15.34967 27.28536 -0.00688 0.03199 -20.44623 8.27215 -6.75655 23.30941 0.01618 -0.12926 -19.54310 24.42583 15.51376 4.87701 -1.04399 3.60799 -38.84870 -18.17666 4.02960 2.66501 0.00000 0.00000 -0.00000 0.00000 5.00000 2.54299 -0.00001 0.00000 0.00001 0.00000 60.00001 9.23201 -0.30100 2.14400 2.00000 0.00000 -0.00000 4.22500 0.00000 0.00000 2.00000 0.00000 -0.00000 2.65401 0.00000 0.00000 2.00000 0.00000 -0.00000 8.92001 -0.00001 0.00001 -80.00000 0.00000 0.00001 4.86299 -0.00001 0.00000 -90.00000 -0.00000 0.00000 2.76499 0.00000 -0.00001 -69.99999 -0.00000 0.00000 8.68901 -0.12600 -2.08700 -80.00000 0.00000 0.00001 4.53800 -0.00001 -0.00001 -90.00000 -0.00000 0.00000 2.30500 0.00000 0.00000 -69.99999 -0.00000 0.00000 8.39101 -0.81700 -3.75800 2.00000 0.00000 -0.00000 3.04400 0.00000 -0.00001 2.00000 0.00000 -0.00000 1.97500 0.00001 0.00000 2.00000 0.00000 -0.00000 -1.64415 -0.77468 -0.18575 24.79921 -2.70032 -5.79598 -16.54772 -0.00634 -0.00026 67.79042 6.76483 13.44639 -27.00080 0.01615 -0.00328 7.97603 -0.34201 -4.77162 -29.15023 -0.06274 -0.06574 -20.42851 -28.45040 28.34968 -4.87700 -1.04399 3.60799 37.43813 21.26626 8.20657 -2.66500 -0.00002 0.00001 0.00000 0.00000 -5.00000 -2.54302 -0.00002 0.00001 0.00000 0.00000 -60.00001 -9.23200 -0.30103 2.14400 80.00000 -0.00000 0.00001 -4.22499 -0.00000 -0.00000 90.00000 -0.00000 0.00001 -2.65400 0.00000 0.00000 69.99999 0.00000 0.00000 -8.92000 -0.00002 -0.00000 80.00000 -0.00000 0.00001 -4.86305 -0.00001 0.00000 90.00000 -0.00000 0.00001 -2.76501 -0.00002 0.00000 69.99999 0.00000 0.00000 -8.68900 -0.12603 -2.08700 80.00000 -0.00000 0.00001 -4.53799 -0.00000 0.00000 90.00000 -0.00000 0.00001 -2.30501 0.00000 -0.00000 69.99999 0.00000 0.00000 -8.39100 -0.81701 -3.75800 80.00000 -0.00000 0.00001 -3.04403 -0.00001 0.00001 90.00000 -0.00000 0.00001 -1.97499 -0.00005 -0.00000 69.99999 0.00000 0.00000 0.00770 0.77062 -0.00004 0.00001 0.00420 -0.00003 0.00047 6.89163 -0.00934 23.55025 21.19236 20.88197 
5.77587 81.22613 -209.91832 -2.11991 3.99442 -51.56549 7.98186 1.49328 2.16400 20.24199 5.68803 -9.41798 -0.01369 -40.07735 0.00844 -3.98335 -3.24558 12.25001 0.00439 -34.28983 -0.00307 -4.92136 32.18572 9.14607 -2.84864 -0.08819 2.13986 0.04045 -0.17138 -24.49998 -0.00897 -41.36307 0.02244 3.26159 5.16270 -11.76841 0.00084 -31.20690 -0.00498 8.43651 42.81386 -12.28127 0.01577 31.90430 0.01342 -1.45076 0.92899 -6.26415 -0.00836 23.38887 0.00147 -1.74644 1.00944 -6.25545 1.64064 -0.33629 -0.18220 -11.82557 -1.34317 6.29889 15.01180 0.00690 -0.01309 -54.30360 6.55077 -14.96581 27.30103 -0.00559 0.03199 -20.36792 8.12491 -7.10176 23.50171 0.04138 -0.14413 -17.47491 20.50227 15.92161 4.87701 -1.04399 3.60799 -38.84870 -18.17666 4.02960 2.66501 0.00000 0.00000 -0.00000 0.00000 5.00000 2.54299 -0.00001 0.00000 0.00001 0.00000 60.00001 9.23201 -0.30100 2.14400 2.00000 0.00000 -0.00000 4.22500 0.00000 0.00000 2.00000 0.00000 -0.00000 2.65401 0.00000 0.00000 2.00000 0.00000 -0.00000 8.92001 -0.00001 0.00001 -80.00000 0.00000 0.00001 4.86299 -0.00001 0.00000 -90.00000 -0.00000 0.00000 2.76499 0.00000 -0.00001 -69.99999 -0.00000 0.00000 8.68901 -0.12600 -2.08700 -80.00000 0.00000 0.00001 4.53800 -0.00001 -0.00001 -90.00000 -0.00000 0.00000 2.30500 0.00000 0.00000 -69.99999 -0.00000 0.00000 8.39101 -0.81700 -3.75800 2.00000 0.00000 -0.00000 3.04400 0.00000 -0.00001 2.00000 0.00000 -0.00000 1.97500 0.00001 0.00000 2.00000 0.00000 -0.00000 -1.64415 -0.77468 -0.18575 24.89487 -2.69368 -5.75550 -16.54282 -0.00634 -0.00026 67.66872 6.79360 13.70275 -27.00080 0.01377 -0.00328 8.63237 -0.63174 -5.14031 -29.58733 -0.06514 -0.06102 -25.43384 -34.98353 19.67477 -4.87700 -1.04399 3.60799 37.43813 21.26626 8.20657 -2.66500 -0.00002 0.00001 0.00000 0.00000 -5.00000 -2.54302 -0.00002 0.00001 0.00000 0.00000 -60.00001 -9.23200 -0.30103 2.14400 80.00000 -0.00000 0.00001 -4.22499 -0.00000 -0.00000 90.00000 -0.00000 0.00001 -2.65400 0.00000 0.00000 69.99999 0.00000 0.00000 -8.92000 -0.00002 -0.00000 80.00000 -0.00000 0.00001 -4.86305 -0.00001 0.00000 90.00000 -0.00000 0.00001 -2.76501 -0.00002 0.00000 69.99999 0.00000 0.00000 -8.68900 -0.12603 -2.08700 80.00000 -0.00000 0.00001 -4.53799 -0.00000 0.00000 90.00000 -0.00000 0.00001 -2.30501 0.00000 -0.00000 69.99999 0.00000 0.00000 -8.39100 -0.81701 -3.75800 80.00000 -0.00000 0.00001 -3.04403 -0.00001 0.00001 90.00000 -0.00000 0.00001 -1.97499 -0.00005 -0.00000 69.99999 0.00000 0.00000 0.00770 0.77062 -0.00004 0.00001 0.00420 -0.00003 0.00047 6.88474 -0.00934 24.30015 22.25159 20.28268 
6.11003 81.34116 -210.03418 -1.82448 4.05333 -51.75269 7.97290 1.47954 2.15907 20.18496 5.33059 -8.98943 -0.01369 -40.14294 0.01291 -4.34069 -3.40489 12.23244 0.00439 -34.20930 -0.00307 -5.02340 32.83393 9.17267 -2.82005 -0.06533 2.12837 0.12637 -0.56865 -24.06580 -0.00899 -41.57647 0.03104 2.82169 4.77998 -12.03780 0.00084 -31.17071 -0.00693 7.56319 41.69868 -11.25037 0.01062 31.85729 0.01342 -1.49543 0.93322 -6.06891 -0.00633 23.36157 0.00147 -1.78749 0.99194 -6.06715 1.64064 -0.33629 -0.18220 -11.65086 -1.31867 6.27807 15.02924 0.00690 -0.01309 -53.87323 6.80519 -14.63127 27.40696 -0.00110 0.02850 -20.24148 7.98032 -7.50490 23.68698 0.05765 -0.14756 -16.62341 17.86829 17.18113 4.87701 -1.04399 3.60799 -38.84870 -18.17666 4.02960 2.66501 0.00000 0.00000 -0.00000 0.00000 5.00000 2.54299 -0.00001 0.00000 0.00001 0.00000 60.00001 9.23201 -0.30100 2.14400 2.00000 0.00000 -0.00000 4.22500 0.00000 0.00000 2.00000 0.00000 -0.00000 2.65401 0.00000 0.00000 2.00000 0.00000 -0.00000 8.92001 -0.00001 0.00001 -80.00000 0.00000 0.00001 4.86299 -0.00001 0.00000 -90.00000 -0.00000 0.00000 2.76499 0.00000 -0.00001 -69.99999 -0.00000 0.00000 8.68901 -0.12600 -2.08700 -80.00000 0.00000 0.00001 4.53800 -0.00001 -0.00001 -90.00000 -0.00000 0.00000 2.30500 0.00000 0.00000 -69.99999 -0.00000 0.00000 8.39101 -0.81700 -3.75800 2.00000 0.00000 -0.00000 3.04400 0.00000 -0.00001 2.00000 0.00000 -0.00000 1.97500 0.00001 0.00000 2.00000 0.00000 -0.00000 -1.64415 -0.77479 -0.18412 24.96017 -2.69573 -5.74306 -16.54159 -0.00634 -0.00026 67.55894 6.75179 13.98616 -27.00080 0.01088 -0.00328 9.12910 -0.81464 -5.40433 -29.90881 -0.06139 -0.05452 -28.45738 -38.75068 9.14670 -4.87700 -1.04399 3.60799 37.43813 21.26626 8.20657 -2.66500 -0.00002 0.00001 0.00000 0.00000 -5.00000 -2.54302 -0.00002 0.00001 0.00000 0.00000 -60.00001 -9.23200 -0.30103 2.14400 80.00000 -0.00000 0.00001 -4.22499 -0.00000 -0.00000 90.00000 -0.00000 0.00001 -2.65400 0.00000 0.00000 69.99999 0.00000 0.00000 -8.92000 -0.00002 -0.00000 80.00000 -0.00000 0.00001 -4.86305 -0.00001 0.00000 90.00000 -0.00000 0.00001 -2.76501 -0.00002 0.00000 69.99999 0.00000 0.00000 -8.68900 -0.12603 -2.08700 80.00000 -0.00000 0.00001 -4.53799 -0.00000 0.00000 90.00000 -0.00000 0.00001 -2.30501 0.00000 -0.00000 69.99999 0.00000 0.00000 -8.39100 -0.81701 -3.75800 80.00000 -0.00000 0.00001 -3.04403 -0.00001 0.00001 90.00000 -0.00000 0.00001 -1.97499 -0.00005 -0.00000 69.99999 0.00000 0.00000 0.00770 0.77062 -0.00004 0.00001 0.00420 -0.00003 0.00047 6.87792 -0.00934 24.93409 23.08358 19.72065 
